# xmcd
#
# Track frame offsets:
#	150
#	16138
#	31095
#	52984
#	67216
#	87069
#	107547
#	125707
#	148321
#	166428
#
# Disc length: 2503 seconds
#
# Revision: 0
# Processed by: cddbd v1.5.1PL0 Copyright (c) Steve Scherf et al.
# Submitted via: EasyCDDAExtractor 8.0.1.1
#
DISCID=8409c50a
DTITLE=Parton Harris and Ronstadt - Trio  II 2005
DYEAR=2005
DGENRE=Country
TTITLE0=After the Gold Rush
TTITLE1=Do I Ever Cross Your Mind
TTITLE2=Feels Like Home
TTITLE3=He Rode All the Way to Texas
TTITLE4=High Sierra
TTITLE5=I Feel the Blues Movin' In
TTITLE6=Lover's Return
TTITLE7=The Blue Train
TTITLE8=When We're Gone, Long Gone
TTITLE9=You'll Never Be the Sun
EXTD=
EXTT0=
EXTT1=
EXTT2=
EXTT3=
EXTT4=
EXTT5=
EXTT6=
EXTT7=
EXTT8=
EXTT9=
PLAYORDER=
